<?xml version="1.0" standalone="no"?>
<!DOCTYPE svg PUBLIC "-//W3C//DTD SVG 20010904//EN"
 "http://www.w3.org/TR/2001/REC-SVG-20010904/DTD/svg10.dtd">
<svg version="1.0" xmlns="http://www.w3.org/2000/svg"
 width="232.000000pt" height="219.000000pt" viewBox="0 0 232.000000 219.000000"
 preserveAspectRatio="xMidYMid meet">
<metadata>
Created by potrace 1.15, written by Peter Selinger 2001-2017
</metadata>
<g transform="translate(0.000000,219.000000) scale(0.100000,-0.100000)"
fill="#000000" stroke="none">
<path d="M0 1095 l0 -1095 1160 0 1160 0 0 1095 0 1095 -1160 0 -1160 0 0
-1095z m1852 905 c32 -5 74 -16 93 -26 49 -23 123 -97 142 -142 19 -45 28
-234 38 -819 4 -221 8 -413 9 -427 0 -14 -2 -27 -6 -28 -4 -2 -75 51 -159 117
-83 66 -156 122 -161 124 -7 2 -9 -9 -5 -32 3 -20 3 -45 0 -57 l-6 -21 -391 3
-391 3 -60 30 c-84 42 -125 98 -125 171 0 51 3 57 44 99 58 57 100 69 258 69
l128 1 0 143 0 142 -163 0 c-237 0 -344 -32 -458 -138 -104 -96 -149 -190
-150 -316 -2 -176 94 -321 281 -424 41 -23 150 -50 225 -56 39 -3 234 -8 435
-12 201 -3 368 -8 373 -11 4 -2 7 -26 7 -54 0 -27 3 -49 6 -49 3 0 73 54 155
120 82 66 155 120 161 120 7 0 9 -22 4 -72 -11 -131 -82 -228 -189 -260 -45
-14 -135 -14 -1017 -2 -534 7 -534 7 -608 63 -18 13 -46 43 -61 65 -53 79 -49
7 -67 1106 -5 319 -3 371 10 409 31 86 106 156 184 172 49 10 1390 0 1464 -11z"/>
<path d="M395 1859 c-71 -76 -131 -143 -133 -147 -3 -10 273 -292 286 -292 4
0 7 28 7 62 l0 63 260 -3 c282 -3 341 -12 403 -58 18 -14 42 -44 54 -67 19
-38 22 -64 29 -282 4 -132 8 -266 8 -297 l1 -58 190 0 190 0 0 73 c-1 39 -5
196 -10 347 -7 241 -11 283 -30 340 -48 142 -137 226 -291 275 -121 38 -182
44 -489 46 -157 1 -295 6 -307 10 -19 7 -21 15 -21 65 1 32 -3 59 -8 60 -5 1
-67 -60 -139 -137z"/>
</g>
</svg>
